<?xml version="1.0" encoding="UTF-8" standalone="no"?>
<svg width="986px" height="466px" viewBox="0 0 986 466" version="1.1" xmlns="http://www.w3.org/2000/svg" xmlns:xlink="http://www.w3.org/1999/xlink" xmlns:sketch="http://www.bohemiancoding.com/sketch/ns">
    <title>quafe</title>
    <description>Created with Sketch (http://www.bohemiancoding.com/sketch)</description>
    <defs></defs>
    <g id="Quafe-Logo" stroke="none" stroke-width="1" fill="none" fill-rule="evenodd" sketch:type="MSPage">
        <g id="Quafe" sketch:type="MSLayerGroup" transform="translate(1.000000, 1.000000)" fill="#38A196">
            <path d="M900.55,60.41 C916.75,58.81 933.52,60.15 948.81,66.01 C957.62,69.38 966.02,74.79 971.12,82.92 C978.91,95.15 982.31,109.6 984.02,123.84 C985.94,140.61 984.95,157.71 980.9,174.1 C943.97,177.91 906.9,180.29 869.97,184 C868.96,191.96 868.27,200.03 869.02,208.05 C869.67,213.1 871.18,218.38 874.94,222.03 C881,227.68 891.2,227.94 897.58,222.66 C905.32,216.34 909.01,206.52 911.3,197.09 C932.81,195.62 954.31,193.98 975.84,192.99 C975.5,206.76 969.37,219.64 962.07,231.05 C951.56,246.78 936.71,259.74 919.27,267.22 C902.26,274.61 883.16,276.85 864.85,274.31 C844.38,271.43 825.05,259.14 815.35,240.65 C807.69,225.32 804.58,208.04 804.48,191 C804.63,166.47 810.82,142.22 820.82,119.9 C826.96,106.81 833.67,93.44 844.6,83.64 C859.87,69.72 880.23,62.48 900.55,60.41 Z M879.63,141.51 C880.08,128.9 889.21,117.14 901.23,113.43 C906.24,111.8 912.4,112.98 915.59,117.42 C920.08,123.55 920.03,131.63 919.52,138.88 C906.23,139.89 892.93,140.8 879.63,141.51 Z" id="e" sketch:type="MSShapeGroup"></path>
            <path d="M765.23,5.14 C776.24,2.18 787.6,0.61 798.98,0.04 C808.13,-0.01 817.59,-0.53 826.39,2.51 C828.63,3.31 831.68,5.12 830.87,7.95 C828.14,23.13 825.45,38.33 822.64,53.5 C811.01,53.29 798.54,54.08 788.48,60.52 C783.15,63.78 780.25,69.85 780.1,75.98 C789.75,75.81 799.35,74.63 808.98,73.95 C805.52,93.6 802.02,113.24 798.58,132.89 C790.63,133.54 782.68,134 774.73,134.61 C769.59,165.63 764.52,196.65 759.34,227.66 C764.83,227.41 770.32,227.09 775.81,226.82 C773.1,244.44 770.4,262.07 767.74,279.69 C734.85,282.2 701.95,284.59 669.05,287.05 C671.73,268.64 674.46,250.24 677.15,231.84 C683.2,231.54 689.25,231.27 695.29,230.89 C699.58,200.86 704.13,170.87 708.3,140.82 C703.3,141.16 698.33,141.78 693.33,142.07 C696.13,122.47 699.1,102.89 702.03,83.31 C707.31,82.96 712.59,82.49 717.87,82 C719.12,68.46 721.62,54.98 726.01,42.09 C729.67,31.81 734.53,21.17 743.54,14.49 C750.05,9.97 757.64,7.26 765.23,5.14" id="f" sketch:type="MSShapeGroup"></path>
            <path d="M604.1,92.07 C626.19,90.25 648.25,87.84 670.4,86.72 C665.16,120.93 658.24,154.88 652.12,188.94 C649.85,202.59 646.23,216.1 645.99,230.01 C645.91,231.63 646.5,233.17 646.92,234.71 C652.88,234.5 658.83,234.27 664.79,233.96 C662.32,250.19 659.86,266.42 657.42,282.65 C657.39,283.96 656,284.52 655.09,285.15 C638.17,294.48 618.31,297.6 599.2,295.85 C592.62,295.17 586.02,292.43 581.87,287.11 C579.17,283.96 577.51,280.12 575.15,276.74 C567.8,280.98 562.91,288.17 556.13,293.14 C546.02,301.25 532.81,304.72 519.99,304.25 C506.96,304.22 494.01,298.37 485.78,288.21 C475.36,275.57 471.87,258.85 470.64,242.9 C469,218.17 472.61,193.27 479.39,169.49 C486.11,146.87 496.54,124.36 514.46,108.41 C527.33,96.79 544.73,90.62 562.03,91.14 C569.38,91.31 576.96,92.72 583.19,96.81 C589.14,100.73 594.58,105.46 599.14,110.95 C600.73,104.65 602.37,98.35 604.1,92.07 Z M567.43,144.65 C572.87,142.75 579.67,144 583.05,148.97 C587.92,155.91 588.45,164.79 588.75,172.99 C588.3,191.85 584.06,210.74 575.65,227.67 C571.69,234.92 566.92,242.64 559.06,246.11 C553.3,248.74 546.38,246.18 542.91,241.1 C537.46,233.25 536.67,223.27 536.48,214 C536.89,196.15 540.76,178.1 549.28,162.3 C553.45,154.93 559.1,147.47 567.43,144.65 Z" id="a" sketch:type="MSShapeGroup"></path>
            <path d="M376.11,110.83 C401.82,108.78 427.52,106.57 453.26,104.95 C447.63,142.69 442.26,180.47 436.3,218.16 C435.15,226.75 433.76,235.36 433.76,244.05 C433.98,245.66 433.58,247.84 435.28,248.77 C440.62,251.99 447.16,251.44 453.15,251.52 C450.89,268.98 448.34,286.4 445.87,303.82 C438.75,307.12 431,308.7 423.36,310.27 C412.01,312.3 400.31,313.77 388.83,311.99 C382.94,311.06 377.25,308.13 373.72,303.23 C371.17,299.88 369.61,295.93 368.13,292.03 C360.99,294.6 355.94,300.5 350.45,305.43 C344.23,311.36 336.98,316.64 328.46,318.58 C315.04,321.79 300.65,322.89 287.27,318.91 C281.78,317.38 277.09,313.71 273.88,309.05 C267.7,300.41 264.84,289.44 266.29,278.89 C270.45,244.46 276.04,210.22 281.28,175.94 C277.23,176.11 273.2,176.57 269.16,176.81 C271.67,158.22 274.32,139.63 277.03,121.06 C303.21,118.58 329.38,116.06 355.6,114 C349.95,155.42 342.69,196.62 337.44,238.1 C337.1,241.87 335.95,246.23 338.54,249.5 C341.94,253.74 347.74,255.54 353.01,255.43 C361.16,253.24 366.74,245.09 367.79,236.97 C371.48,214.17 375.03,191.36 378.5,168.53 C375.05,168.49 371.6,168.45 368.16,168.65 C370.85,149.38 373.44,130.1 376.11,110.83" id="u" sketch:type="MSShapeGroup"></path>
            <path d="M136.58,52.79 C155.06,48.85 174.72,47.31 192.99,53.07 C206.35,57.15 217.99,65.45 227.94,75.06 C235.19,81.94 240.93,90.42 244.37,99.82 C251.03,118.07 251.13,137.83 251,157.02 C250.41,178.29 247.22,199.44 242.26,220.12 C238.17,236.74 232.88,253.12 225.64,268.66 C219.95,280.65 213.19,292.34 203.99,302.01 C197.67,308.72 189.91,314.22 181.04,316.94 C236.58,324.82 290.15,341.94 344.07,356.85 C389.94,369.57 436.54,379.78 483.73,386.19 C533.02,393.7 583.72,390.73 632.12,379.04 C668.95,369.84 705.07,354.89 734.63,330.64 C750.53,317.78 763.1,301.43 774.79,284.8 C780.33,277.01 785.3,268.85 790.26,260.68 C799.67,275.24 814.63,285.41 830.73,291.3 C861.92,302.61 897.84,300.58 927.3,285.18 C924.88,299.06 915.81,310.5 906.86,320.9 C884.45,345.52 857.58,365.58 830.04,384.07 C810.7,396.83 790.73,408.65 770,419 C732.21,437.32 691.78,450.15 650.45,457.55 C583.82,469.32 513.93,466.33 449.67,444.3 C430.8,437.92 412.77,429.4 394.57,421.39 C341.14,397.47 288.07,372.09 231.9,355.11 C202.36,347 171.52,343.43 140.92,344.55 C124.76,345.29 108.42,347.33 93.25,353.2 C73.8,360.86 56.2,374.8 46.76,393.72 C42.13,403.01 39.68,414.41 44.49,424.13 C31.7,422.37 19.25,418.69 6.89,415.03 C4.79,414.12 1.58,413.93 0.89,411.32 C-1.24,404.52 0.56,397.25 2.91,390.76 C7.7,378.33 15.43,367.21 24.38,357.42 C35.19,345.71 48.44,335.91 63.68,330.88 C45.9,321.31 32.9,304.2 27.05,285.01 C17.82,255.33 20.45,223.5 26.19,193.41 C32.52,163.03 41.47,132.3 59.79,106.79 C78.07,80.67 105.17,59.93 136.58,52.79 Z M146.36,113.54 C154.43,111.91 163.51,113.57 169.65,119.31 C177.51,126.52 180.84,137.21 182.69,147.41 C185.77,166.37 184.07,185.79 180.37,204.54 C176.44,223.34 170.35,241.9 160.46,258.45 C154.61,267.9 147.42,277.14 137.32,282.29 C127.74,287.01 115.34,286.88 106.57,280.42 C99.63,275.19 95.5,267.11 93.12,258.92 C89.04,245.02 88.92,230.31 90.08,215.98 C91.92,196.51 96.62,177.29 104.26,159.27 C109.08,148.12 115.08,137.33 123.21,128.23 C129.4,121.39 137.17,115.48 146.36,113.54 Z" id="Q" sketch:type="MSShapeGroup"></path>
        </g>
    </g>
</svg>